<svg width="18" height="20" viewBox="0 0 18 20" fill="none" xmlns="http://www.w3.org/2000/svg">
<path fill-rule="evenodd" clip-rule="evenodd" d="M0.372599 2.3613C2.73218 2.09752 4.78938 1.08463 6.36335 0H11.6366C13.2106 1.08463 15.2678 2.09752 17.6274 2.3613C17.8408 2.38516 18 2.5576 18 2.76504V9.98878C18 14.8877 12.849 19.0042 9 20C5.15095 19.0042 0 14.8877 0 9.98882V2.76504C0 2.5576 0.159144 2.38516 0.372599 2.3613ZM2.31554 4.28492V9.98878C2.31554 11.5379 3.09863 13.0887 4.2581 14.4105C5.56026 15.8951 7.32693 17.0821 9 17.6597C10.6731 17.0821 12.4397 15.8951 13.7419 14.4105C14.9014 13.0887 15.6845 11.5379 15.6845 9.98878V4.28492C14.892 4.09411 14.1212 3.8361 13.3766 3.52163C12.5233 3.16126 11.7034 2.72732 10.9237 2.23573H7.07625C6.29662 2.72728 5.47673 3.16126 4.62342 3.52163C3.87877 3.8361 3.10802 4.09411 2.31554 4.28492ZM1.47351 9.98882C1.47351 11.7452 2.33748 13.4762 3.61669 14.9346C5.05067 16.5694 7.01714 17.8702 8.86511 18.4737C8.95613 18.5035 9.05035 18.5014 9.13481 18.4737L9.13995 18.472C10.9864 17.8678 12.9506 16.5679 14.3833 14.9346C15.6625 13.4762 16.5264 11.7452 16.5264 9.98882V3.96496C16.5264 3.75858 16.3671 3.58813 16.1608 3.56195C15.3223 3.37886 14.5039 3.11289 13.712 2.7785C12.8677 2.42195 12.0544 1.98691 11.28 1.49102C11.2085 1.44533 11.1279 1.42354 11.0481 1.42362V1.42276H6.95184C6.85602 1.42276 6.76769 1.4537 6.69692 1.50577C5.92941 1.99553 5.12384 2.42553 4.28791 2.77854C3.48504 3.1176 2.6548 3.3863 1.80409 3.56959C1.60828 3.61134 1.47494 3.77898 1.47511 3.965H1.47351V9.98882ZM9 4.16659C7.55246 4.16659 6.24193 4.73313 5.2933 5.64911C4.34467 6.56504 3.7579 7.83045 3.7579 9.22805C3.7579 10.6257 4.34467 11.891 5.2933 12.807C6.24193 13.7229 7.55246 14.2895 9 14.2895C10.4475 14.2895 11.7581 13.7229 12.7067 12.807C13.6554 11.891 14.2421 10.6257 14.2421 9.22805C14.2421 7.83041 13.6553 6.56504 12.7067 5.64911C11.7581 4.73317 10.4475 4.16659 9 4.16659ZM12.1113 6.22394C11.3151 5.45516 10.215 4.97963 9 4.97963C7.78495 4.97963 6.68488 5.45516 5.88865 6.22394C5.09243 6.99272 4.59993 8.05488 4.59993 9.22805C4.59993 10.4013 5.09243 11.4634 5.88865 12.2322C6.68488 13.0009 7.78491 13.4765 9 13.4765C10.2151 13.4765 11.3151 13.0009 12.1113 12.2322C12.9076 11.4634 13.4001 10.4012 13.4001 9.22805C13.4001 8.05484 12.9076 6.99272 12.1113 6.22394ZM7.51036 11.4909C7.7207 11.6825 7.9129 11.8364 8.14458 11.9496C8.28255 12.017 8.42759 12.0669 8.58871 12.0978L8.59763 12.4554C8.60307 12.679 8.79526 12.856 9.02686 12.8507C9.25846 12.8455 9.44181 12.6599 9.43638 12.4363L9.42771 12.0901C9.75976 12.0203 10.0583 11.8711 10.2953 11.6668C10.6426 11.3674 10.8574 10.9512 10.8574 10.4893C10.8574 10.0275 10.6426 9.61134 10.2953 9.31187C9.96025 9.02301 9.50198 8.84431 9 8.84431C8.7087 8.84431 8.44868 8.74573 8.26385 8.58634C8.09132 8.43756 7.98455 8.23447 7.98455 8.01228H7.98291C7.98291 7.7911 8.09027 7.58789 8.26385 7.43821C8.44868 7.27882 8.7087 7.18024 9 7.18024V7.17866C9.14264 7.17866 9.36106 7.23724 9.5674 7.32992C9.73134 7.40354 9.87041 7.48943 9.92409 7.56833C10.0512 7.75512 10.3112 7.80703 10.5046 7.68423C10.6981 7.56146 10.7518 7.31049 10.6247 7.1237C10.4778 6.90805 10.2096 6.72345 9.91933 6.59309C9.75686 6.52012 9.58092 6.46142 9.41276 6.4224L9.40232 6.00069C9.39689 5.77707 9.2047 5.60004 8.9731 5.60528C8.7415 5.61053 8.55814 5.7961 8.56357 6.01972L8.57326 6.41126C8.24078 6.48102 7.94186 6.63028 7.70466 6.83476C7.35838 7.13333 7.14416 7.54943 7.14412 8.01224H7.14248C7.14248 8.47406 7.35732 8.89024 7.70462 9.18972C8.03966 9.47862 8.4979 9.65728 8.99992 9.65728C9.29121 9.65728 9.55123 9.75585 9.73606 9.91524C9.90859 10.064 10.0154 10.2672 10.0154 10.4893C10.0154 10.7115 9.90863 10.9146 9.73606 11.0634C9.55123 11.2228 9.29121 11.3213 8.99992 11.3213C8.7988 11.3213 8.65018 11.2877 8.52278 11.2255C8.3814 11.1564 8.24398 11.0441 8.08589 10.9002C7.91694 10.7467 7.65111 10.7545 7.49218 10.9176C7.33333 11.0808 7.34141 11.3374 7.51036 11.4909Z" fill="#FACF61"/>
</svg>
