<svg width="20" height="20" viewBox="0 0 20 20" fill="none" xmlns="http://www.w3.org/2000/svg">
<path d="M18.3756 4.66503L14.8213 1.11072C14.488 0.777505 13.9327 0.777505 13.5995 1.11072C13.2663 1.44394 13.2663 1.9993 13.5995 2.33252L15.3766 4.10967C14.2659 4.55396 13.3773 5.77575 13.5995 7.10862C13.8216 8.33041 14.8213 9.33006 16.0431 9.44114C16.5984 9.55221 17.0427 9.44114 17.487 9.21899V17.2162C17.487 17.7715 16.9316 18.3269 16.3763 18.3269C15.8209 18.3269 15.2656 17.7715 15.2656 17.2162V12.2179C15.2656 10.9961 14.2659 9.9965 13.0441 9.9965H11.9334V2.22144C11.9334 0.99965 10.9337 0 9.71195 0H3.04762C1.82582 0 0.826172 0.99965 0.826172 2.22144V18.8823C0.826172 19.4376 1.27046 19.993 1.93689 19.993H10.8227C11.4891 19.993 11.9334 19.4376 11.9334 18.8823V11.6626H13.5995V17.1051C13.5995 18.5491 14.5991 19.8819 16.0431 19.993C17.7091 20.1041 19.1531 18.8823 19.1531 17.2162V6.66433C19.2642 5.88683 18.9309 5.22039 18.3756 4.66503ZM16.4873 7.77505C15.932 7.77505 15.3766 7.33076 15.3766 6.66433C15.3766 5.9979 15.932 5.55361 16.4873 5.55361C17.0427 5.55361 17.5981 5.9979 17.5981 6.66433C17.5981 7.33076 17.0427 7.77505 16.4873 7.77505ZM5.38013 14.5505V11.6626H4.04727C3.60298 11.6626 3.38083 11.2183 3.60298 10.8851L6.60193 5.33146C6.713 4.7761 7.4905 4.99825 7.4905 5.55361V8.88577H8.7123C9.15659 8.88577 9.37873 9.33006 9.15659 9.77435L6.26871 14.8837C6.04657 15.328 5.26906 15.1058 5.38013 14.5505Z" fill="#39CE54"/>
</svg>
