<svg width="40" height="40" viewBox="0 0 40 40" fill="none" xmlns="http://www.w3.org/2000/svg">
<g clip-path="url(#clip0_2102_5753)">
<path d="M24.3347 10.7288L28.2348 7.8949C28.6731 7.5763 28.8562 7.01234 28.6889 6.4972C28.5217 5.98206 28.0419 5.63355 27.5 5.63355H22.6782L21.1889 1.04859C21.0217 0.533449 20.5419 0.184937 20 0.184937C19.458 0.184937 18.9782 0.533449 18.811 1.04859L17.3217 5.63355H12.5C11.958 5.63355 11.4782 5.98206 11.311 6.4972C11.1438 7.01234 11.3269 7.5763 11.7651 7.8949L15.6652 10.7288L14.176 15.3143C14.0087 15.8295 14.1919 16.394 14.6301 16.712C15.0695 17.0306 15.6604 17.0306 16.0998 16.712L20 13.8782L23.9001 16.712C24.3346 17.027 24.9367 17.026 25.3698 16.712C25.8081 16.394 25.9912 15.8295 25.8239 15.3143L24.3347 10.7288Z" fill="#196164"/>
<path d="M11.25 10.6049H9.24684C8.70363 10.6049 8.22511 10.2576 8.05788 9.74121L7.43898 7.83568C7.27174 7.32056 6.792 6.97205 6.25001 6.97205C5.70803 6.97205 5.22829 7.32056 5.06105 7.83568L4.44215 9.74121C4.27491 10.2576 3.7964 10.6049 3.25319 10.6049H1.25001C0.708027 10.6049 0.228289 10.9534 0.0610515 11.4685C-0.106186 11.9836 0.0769265 12.5482 0.515152 12.8662L2.13625 14.043C2.5757 14.3628 2.75759 14.9249 2.59035 15.4413C2.59035 15.4413 1.97356 17.3397 1.97146 17.3462C1.60779 18.4655 2.94053 19.44 3.89529 18.7439L5.51516 17.5665C5.95461 17.2467 6.54544 17.2467 6.98489 17.5665C6.98489 17.5665 8.60459 18.7438 8.60476 18.7439C9.54358 19.4263 10.9002 18.4908 10.5286 17.3462L9.90969 15.4419C9.74245 14.9249 9.92434 14.3628 10.3638 14.0436L11.9849 12.8662C12.4231 12.5482 12.6062 11.9837 12.439 11.4685C12.2718 10.9534 11.792 10.6049 11.25 10.6049Z" fill="#196164"/>
<path d="M30.0903 15.4413C30.0903 15.4413 29.4737 17.339 29.4714 17.3462C29.108 18.4647 30.4441 19.4373 31.3952 18.7439L33.0151 17.5665C33.4546 17.2467 34.0454 17.2467 34.4848 17.5665L36.1047 18.7439C37.0642 19.4434 38.3934 18.4701 38.0285 17.3462L37.4096 15.4419C37.2424 14.9249 37.4243 14.3628 37.8637 14.0436L39.4848 12.8662C39.9231 12.5482 40.1062 11.9837 39.9389 11.4685C39.7717 10.9534 39.2919 10.6049 38.75 10.6049H36.7468C36.2036 10.6049 35.7251 10.2576 35.5578 9.74121L34.9389 7.8357C34.7717 7.32056 34.2919 6.97205 33.75 6.97205C33.208 6.97205 32.7282 7.32056 32.561 7.8357L31.9421 9.74121C31.7749 10.2576 31.2963 10.6049 30.7531 10.6049H28.75C28.208 10.6049 27.7282 10.9534 27.561 11.4685C27.3938 11.9836 27.5769 12.5482 28.0151 12.8662L29.6362 14.043C30.0756 14.3628 30.2575 14.9249 30.0903 15.4413Z" fill="#196164"/>
<path d="M21.875 20H18.125C16.0571 20 14.375 21.6821 14.375 23.75V36.25C14.375 38.3179 16.0571 40 18.125 40H21.875C23.9429 40 25.625 38.3179 25.625 36.25V23.75C25.625 21.6821 23.9429 20 21.875 20Z" fill="#196164"/>
<path d="M36.25 25H32.5C30.4321 25 28.75 26.6821 28.75 28.75V36.25C28.75 38.3179 30.4321 40 32.5 40H36.25C38.3179 40 40 38.3179 40 36.25V28.75C40 26.6821 38.3179 25 36.25 25Z" fill="#196164"/>
<path d="M7.5 25H3.75C1.68213 25 0 26.6821 0 28.75V36.25C0 38.3179 1.68213 40 3.75 40H7.5C9.56787 40 11.25 38.3179 11.25 36.25V28.75C11.25 26.6821 9.56787 25 7.5 25Z" fill="#196164"/>
</g>
<defs>
<clipPath id="clip0_2102_5753">
<rect width="40" height="40" fill="white"/>
</clipPath>
</defs>
</svg>
