<svg width="22" height="20" viewBox="0 0 22 20" fill="none" xmlns="http://www.w3.org/2000/svg">
<path fill-rule="evenodd" clip-rule="evenodd" d="M7.6842 4.30402C8.37542 4.30402 9.05128 4.38644 9.69258 4.54002V2.0901C9.69258 -0.236197 6.62817 0.00729616 6.62817 0.00729616V4.36771C6.97762 4.3265 7.33091 4.30402 7.6842 4.30402Z" fill="white"/>
<path fill-rule="evenodd" clip-rule="evenodd" d="M11.8736 19.6142C12.6416 19.8652 13.4634 20 14.3159 20C18.5592 20 22 16.6436 22 12.5042C22 8.36477 18.5592 5.0083 14.3159 5.0083C13.4634 5.0083 12.6416 5.14316 11.8736 5.39414C13.0218 6.03847 13.9972 6.93752 14.7191 8.01264C17.0808 8.21118 18.9356 10.1441 18.9356 12.5042C18.9356 14.8604 17.0808 16.7971 14.7191 16.9957C14.5847 17.0069 14.4503 17.0144 14.3159 17.0144C14.1585 17.0144 14.001 17.0069 13.8474 16.9919C12.7338 16.8833 11.7392 16.3888 11.0019 15.6471C10.8329 15.4785 10.6793 15.295 10.5411 15.1039C10.0111 14.3697 9.69624 13.4744 9.69624 12.5079C9.69624 11.5414 10.0073 10.6461 10.5411 9.91189C9.83065 9.16642 8.81302 8.70191 7.68787 8.70191C7.32306 8.70191 6.96977 8.75061 6.63184 8.84426V12.4892V12.5079V12.5266C6.63568 13.9089 7.02353 15.2013 7.69555 16.3102C7.83763 16.5462 7.99124 16.7709 8.1602 16.9882C8.59797 17.5576 9.11639 18.0671 9.70008 18.4941C10.1071 18.7938 10.5411 19.0523 11.0057 19.2695C11.2822 19.4007 11.5741 19.513 11.8736 19.6142Z" fill="white"/>
<path fill-rule="evenodd" clip-rule="evenodd" d="M3.06441 12.5004C3.06441 10.6236 4.23948 9.01656 5.90993 8.33853C6.14034 8.24488 6.38226 8.16995 6.62803 8.11376C6.96596 8.0351 7.31925 7.99389 7.68406 7.99389C8.98586 7.99389 10.1609 8.51834 10.9981 9.3612C11.167 9.52977 11.3206 9.71333 11.4589 9.90438C11.9888 10.6386 12.3037 11.5339 12.3037 12.5004C12.3037 13.4669 11.9927 14.3622 11.4589 15.0964C12.1693 15.8381 13.1831 16.3026 14.3044 16.3064C14.9803 15.1901 15.3681 13.8902 15.3681 12.5004C15.3681 11.1106 14.9803 9.81073 14.3044 8.6944C14.1623 8.4584 14.0087 8.23364 13.8398 8.01637C13.0986 7.04988 12.1232 6.25947 10.9942 5.73502C10.5795 5.54022 10.1417 5.38289 9.6886 5.26301C9.0473 5.09444 8.37528 5.00454 7.68022 5.00454C7.32309 5.00454 6.9698 5.02701 6.62419 5.07571C6.38226 5.10943 6.14034 5.15063 5.90609 5.20682C4.85774 5.44657 3.89387 5.89984 3.06057 6.51045V2.0901C3.06441 -0.236197 0 0.00729616 0 0.00729616V12.4817V12.5004V12.5191C0.00768022 14.9578 1.20964 17.1268 3.06441 18.4903C4.35085 19.4343 5.95217 19.9963 7.68406 19.9963C8.53657 19.9963 9.35835 19.8614 10.1264 19.6104C9.82684 19.4418 9.53884 19.2545 9.25851 19.0522C8.47128 18.4716 7.80311 17.7748 7.27701 16.9919C4.91918 16.7934 3.06441 14.8567 3.06441 12.5004Z" fill="white"/>
</svg>
