<svg width="40" height="40" viewBox="0 0 40 40" fill="none" xmlns="http://www.w3.org/2000/svg">
<g clip-path="url(#clip0_2102_2079)">
<path d="M24.3349 10.7288L28.2351 7.8949C28.6733 7.5763 28.8564 7.01234 28.6892 6.4972C28.5219 5.98206 28.0422 5.63355 27.5002 5.63355H22.6784L21.1892 1.04859C21.0219 0.533449 20.5422 0.184937 20.0002 0.184937C19.4582 0.184937 18.9785 0.533449 18.8112 1.04859L17.322 5.63355H12.5002C11.9582 5.63355 11.4785 5.98206 11.3112 6.4972C11.144 7.01234 11.3271 7.5763 11.7653 7.8949L15.6655 10.7288L14.1762 15.3143C14.009 15.8295 14.1921 16.394 14.6303 16.712C15.0698 17.0306 15.6606 17.0306 16.1 16.712L20.0002 13.8782L23.9003 16.712C24.3348 17.027 24.937 17.026 25.3701 16.712C25.8083 16.394 25.9914 15.8295 25.8242 15.3143L24.3349 10.7288Z" fill="white"/>
<path d="M11.2502 10.6049H9.24702C8.70381 10.6049 8.2253 10.2576 8.05806 9.74121L7.43916 7.83568C7.27192 7.32056 6.79218 6.97205 6.2502 6.97205C5.70821 6.97205 5.22847 7.32056 5.06123 7.83568L4.44233 9.74121C4.2751 10.2576 3.79658 10.6049 3.25337 10.6049H1.2502C0.70821 10.6049 0.228472 10.9534 0.0612346 11.4685C-0.106003 11.9836 0.0771096 12.5482 0.515335 12.8662L2.13643 14.043C2.57588 14.3628 2.75777 14.9249 2.59053 15.4413C2.59053 15.4413 1.97375 17.3397 1.97165 17.3462C1.60797 18.4655 2.94071 19.44 3.89547 18.7439L5.51535 17.5665C5.9548 17.2467 6.54562 17.2467 6.98507 17.5665C6.98507 17.5665 8.60477 18.7438 8.60495 18.7439C9.54376 19.4263 10.9004 18.4908 10.5288 17.3462L9.90987 15.4419C9.74263 14.9249 9.92452 14.3628 10.364 14.0436L11.9851 12.8662C12.4233 12.5482 12.6064 11.9837 12.4392 11.4685C12.2719 10.9534 11.7922 10.6049 11.2502 10.6049Z" fill="white"/>
<path d="M30.0905 15.4413C30.0905 15.4413 29.474 17.339 29.4716 17.3462C29.1082 18.4647 30.4443 19.4373 31.3955 18.7439L33.0153 17.5665C33.4548 17.2467 34.0456 17.2467 34.4851 17.5665L36.1049 18.7439C37.0644 19.4434 38.3936 18.4701 38.0288 17.3462L37.4099 15.4419C37.2426 14.9249 37.4245 14.3628 37.864 14.0436L39.4851 12.8662C39.9233 12.5482 40.1064 11.9837 39.9392 11.4685C39.7719 10.9534 39.2922 10.6049 38.7502 10.6049H36.747C36.2038 10.6049 35.7253 10.2576 35.5581 9.74121L34.9392 7.8357C34.7719 7.32056 34.2922 6.97205 33.7502 6.97205C33.2082 6.97205 32.7285 7.32056 32.5612 7.8357L31.9423 9.74121C31.7751 10.2576 31.2966 10.6049 30.7534 10.6049H28.7502C28.2082 10.6049 27.7285 10.9534 27.5612 11.4685C27.394 11.9836 27.5771 12.5482 28.0153 12.8662L29.6364 14.043C30.0759 14.3628 30.2578 14.9249 30.0905 15.4413Z" fill="white"/>
<path d="M21.875 20H18.125C16.0571 20 14.375 21.6821 14.375 23.75V36.25C14.375 38.3179 16.0571 40 18.125 40H21.875C23.9429 40 25.625 38.3179 25.625 36.25V23.75C25.625 21.6821 23.9429 20 21.875 20Z" fill="white"/>
<path d="M36.25 25H32.5C30.4321 25 28.75 26.6821 28.75 28.75V36.25C28.75 38.3179 30.4321 40 32.5 40H36.25C38.3179 40 40 38.3179 40 36.25V28.75C40 26.6821 38.3179 25 36.25 25Z" fill="white"/>
<path d="M7.5 25H3.75C1.68213 25 0 26.6821 0 28.75V36.25C0 38.3179 1.68213 40 3.75 40H7.5C9.56787 40 11.25 38.3179 11.25 36.25V28.75C11.25 26.6821 9.56787 25 7.5 25Z" fill="white"/>
</g>
<defs>
<clipPath id="clip0_2102_2079">
<rect width="40" height="40" fill="white"/>
</clipPath>
</defs>
</svg>
